# xmcd
#
# Track frame offsets: 
#        150
#        28830
#        47635
#
# Disc length: 933 seconds
#
# Revision: 3
# Processed by: cddbd v1.5.2PL0 Copyright (c) Steve Scherf et al.
# Submitted via: ExactAudioCopy v0.99pb4
#
DISCID=1f03a303
DTITLE=Dance Floor Virus - Message In A Bottle CDM 1995
DYEAR=1995
DGENRE=Dance
TTITLE0=Message In A Bottle (Castarave Mix)
TTITLE1=Message In A Bottle (Radio Edit)
TTITLE2=Message In A Bottle (Dub On The Raft)
EXTD=
EXTT0=
EXTT1=
EXTT2=
PLAYORDER=
